<?xml version="1.0" standalone="no"?>
<svg
  width="600"
  height="600"
  viewBox="0 0 600 600"
  xmlns="http://www.w3.org/2000/svg"
	 opacity="0.5"
>
  <g transform="translate(300,300)">
    <path d="M132.5,-193.5C174.2,-179.4,212.2,-146.8,216.7,-107.6C221.2,-68.3,192.3,-22.4,177,19.5C161.8,61.5,160.2,99.5,142.7,128.4C125.1,157.2,91.4,177,58.7,175.3C26,173.7,-5.7,150.6,-48.9,146.9C-92,143.1,-146.5,158.7,-174.1,142.3C-201.7,125.9,-202.3,77.5,-192.9,37.5C-183.5,-2.6,-164.1,-34.3,-156.2,-79.6C-148.3,-124.8,-152,-183.5,-127.9,-205.7C-103.8,-227.9,-51.9,-213.4,-3.2,-208.4C45.4,-203.3,90.8,-207.7,132.5,-193.5Z" fill="#e2e2e2" />
  </g>
</svg>
    