<?xml version="1.0" standalone="no"?>
<svg
  width="600"
  height="600"
  viewBox="0 0 600 600"
  xmlns="http://www.w3.org/2000/svg"
	 opacity="0.5"
>
  <g transform="translate(300,300)">
    <path d="M107,-157.7C135.8,-148,154.3,-113.5,167.3,-78.4C180.2,-43.3,187.6,-7.6,193.7,35.8C199.8,79.2,204.6,130.3,184.2,166.9C163.8,203.4,118.2,225.5,74.6,225C31,224.5,-10.7,201.5,-55.4,188.5C-100.2,175.5,-148,172.6,-170.2,147.3C-192.5,122,-189.3,74.4,-181.4,34.8C-173.5,-4.7,-160.9,-36.2,-143.7,-62.3C-126.6,-88.3,-104.9,-108.9,-80.2,-120.5C-55.5,-132,-27.8,-134.5,5.7,-143.4C39.1,-152.2,78.2,-167.4,107,-157.7Z" fill="#e2e2e2" />
  </g>
</svg>
    