<?xml version="1.0" standalone="no"?>
<svg
  width="600"
  height="600"
  viewBox="0 0 600 600"
  xmlns="http://www.w3.org/2000/svg"
	 opacity="0.5"
>
  <g transform="translate(300,300)">
    <path d="M108.3,-161.1C152.4,-140.1,208.5,-130.5,229,-100.3C249.4,-70.1,234.1,-19.3,224.3,30.6C214.6,80.6,210.5,129.7,181.8,150.8C153,172,99.8,165.1,55,170.8C10.1,176.5,-26.2,194.8,-65.4,195.7C-104.7,196.6,-146.8,180.1,-173.8,150C-200.9,119.9,-212.8,76.1,-216,33C-219.2,-10.2,-213.8,-52.7,-193.5,-84.8C-173.3,-117,-138.3,-138.8,-103.6,-164.1C-68.8,-189.5,-34.4,-218.2,-1.2,-216.4C32.1,-214.6,64.2,-182.2,108.3,-161.1Z" fill="#e2e2e2" />
  </g>
</svg>
    