<?xml version="1.0" standalone="no"?>
<svg
  width="600"
  height="600"
  viewBox="0 0 600 600"
  xmlns="http://www.w3.org/2000/svg"
	 opacity="0.5"
>
  <g transform="translate(300,300)">
    <path d="M107.5,-156.2C139.6,-146.6,166.2,-117.3,184.3,-82.7C202.5,-48.1,212.1,-8.1,208,30.9C204,69.9,186.3,108,158.3,133.4C130.4,158.8,92.2,171.5,57.5,169.9C22.7,168.2,-8.6,152.2,-42,142.6C-75.3,133,-110.6,129.7,-137.9,111.9C-165.2,94,-184.6,61.7,-204.2,20.5C-223.9,-20.6,-243.8,-70.5,-227.1,-102.2C-210.3,-133.9,-156.8,-147.3,-112.8,-151.5C-68.8,-155.8,-34.4,-150.9,1.6,-153.4C37.7,-155.9,75.3,-165.9,107.5,-156.2Z" fill="#e2e2e2" />
  </g>
</svg>
    