<?xml version="1.0" standalone="no"?><svg opacity="0.5" xmlns="http://www.w3.org/2000/svg" viewBox="0 0 1440 320"><path fill="#e2e2e2" fill-opacity="1" d="M0,32L34.3,42.7C68.6,53,137,75,206,96C274.3,117,343,139,411,144C480,149,549,139,617,128C685.7,117,754,107,823,101.3C891.4,96,960,96,1029,117.3C1097.1,139,1166,181,1234,192C1302.9,203,1371,181,1406,170.7L1440,160L1440,320L1405.7,320C1371.4,320,1303,320,1234,320C1165.7,320,1097,320,1029,320C960,320,891,320,823,320C754.3,320,686,320,617,320C548.6,320,480,320,411,320C342.9,320,274,320,206,320C137.1,320,69,320,34,320L0,320Z"></path></svg>